HIERARCHY
ROOT Pelvis
{
	OFFSET 0.000000 0.000000 0.000000
	CHANNELS 6 Xposition Yposition Zposition Xrotation Yrotation Zrotation
	JOINT LeftUpLeg_virtual
	{
		OFFSET 0.000000 0.000000 0.000000
		CHANNELS 3 Xrotation Yrotation Zrotation
		JOINT LeftUpLeg
		{
			OFFSET 18.735201 -5.666702 -4.541200
			CHANNELS 3 Xrotation Yrotation Zrotation
			JOINT LeftLeg
			{
				OFFSET -0.021200 -31.938179 0.493100
				CHANNELS 3 Xrotation Yrotation Zrotation
				JOINT LeftFoot
				{
					OFFSET 0.021200 -31.938179 -4.336299
					CHANNELS 3 Xrotation Yrotation Zrotation
					JOINT LeftToeBase
					{
						OFFSET 0.943001 -26.722000 15.023500
						CHANNELS 3 Xrotation Yrotation Zrotation
						End Site
						{
							OFFSET 0 0 0
						}
					}
				}
			}
		}
	}
	JOINT RightUpLeg_virtual
	{
		OFFSET 0.000000 0.000000 0.000000
		CHANNELS 3 Xrotation Yrotation Zrotation
		JOINT RightUpLeg
		{
			OFFSET -18.735201 -5.666702 -4.541200
			CHANNELS 3 Xrotation Yrotation Zrotation
			JOINT RightLeg
			{
				OFFSET 0.018946 -31.938133 0.493100
				CHANNELS 3 Xrotation Yrotation Zrotation
				JOINT RightFoot
				{
					OFFSET -0.018946 -31.938126 -4.336299
					CHANNELS 3 Xrotation Yrotation Zrotation
					JOINT RightToeBase
					{
						OFFSET -0.943001 -26.722004 15.023500
						CHANNELS 3 Xrotation Yrotation Zrotation
						End Site
						{
							OFFSET 0 0 0
						}
					}
				}
			}
		}
	}
	JOINT Hips_virtual
	{
		OFFSET 0.000000 0.000000 0.000000
		CHANNELS 3 Xrotation Yrotation Zrotation
		JOINT Hips
		{
			OFFSET -0.000000 -0.000000 -0.000000
			CHANNELS 3 Xrotation Yrotation Zrotation
			JOINT Spine
			{
				OFFSET 0.000000 10.199997 -0.299500
				CHANNELS 3 Xrotation Yrotation Zrotation
				JOINT Spine1
				{
					OFFSET 0.000000 11.900002 -1.516600
					CHANNELS 3 Xrotation Yrotation Zrotation
					JOINT Spine2
					{
						OFFSET 0.000000 13.600006 -2.842500
						CHANNELS 3 Xrotation Yrotation Zrotation
						JOINT Neck_virtual
						{
							OFFSET 0.000000 0.000000 0.000000
							CHANNELS 3 Xrotation Yrotation Zrotation
							JOINT Neck
							{
								OFFSET 0.000000 9.624100 -2.890100
								CHANNELS 3 Xrotation Yrotation Zrotation
								JOINT Head
								{
									OFFSET 0.000000 14.068802 -1.351900
									CHANNELS 3 Xrotation Yrotation Zrotation
									End Site
									{
										OFFSET 0 0 0
									}
								}
							}
						}
						JOINT LeftShoulder_virtual
						{
							OFFSET 0.000000 0.000000 0.000000
							CHANNELS 3 Xrotation Yrotation Zrotation
							JOINT LeftShoulder
							{
								OFFSET 15.263000 10.923401 -0.547700
								CHANNELS 3 Xrotation Yrotation Zrotation
								JOINT LeftArm
								{
									OFFSET 25.438599 -2.830597 -13.032500
									CHANNELS 3 Xrotation Yrotation Zrotation
									JOINT LeftForeArm
									{
										OFFSET 29.960503 0.000000 0.000000
										CHANNELS 3 Xrotation Yrotation Zrotation
										JOINT LeftHand
										{
											OFFSET 27.849251 0.000000 0.000000
											CHANNELS 3 Xrotation Yrotation Zrotation
											End Site
											{
												OFFSET 0 0 0
											}
										}
									}
								}
							}
						}
						JOINT RightShoulder_virtual
						{
							OFFSET 0.000000 0.000000 0.000000
							CHANNELS 3 Xrotation Yrotation Zrotation
							JOINT RightShoulder
							{
								OFFSET -15.263000 10.923401 -0.547700
								CHANNELS 3 Xrotation Yrotation Zrotation
								JOINT RightArm
								{
									OFFSET -25.438599 -2.830597 -13.032500
									CHANNELS 3 Xrotation Yrotation Zrotation
									JOINT RightForeArm
									{
										OFFSET -29.960503 0.000000 0.000000
										CHANNELS 3 Xrotation Yrotation Zrotation
										JOINT RightHand
										{
											OFFSET -27.849251 0.000000 0.000000
											CHANNELS 3 Xrotation Yrotation Zrotation
											End Site
											{
												OFFSET 0 0 0
											}
										}
									}
								}
							}
						}
					}
				}
			}
		}
	}
}
MOTION
Frames: 5
Frame Time: 0.03333333
0.374423 91.613541 4.044624 0.000000 0.000000 0.000000 -3.528290 4.307590 2.661469 -5.365592 7.187053 3.959789 19.581678 3.915379 1.208286 -7.994962 3.143424 -5.867993 0.000000 0.000000 0.000000 -3.920935 5.770296 2.263927 -5.437001 -12.440172 -11.961242 18.809491 -5.869961 -1.174124 -10.940439 -2.568052 13.656278 0.000000 0.000000 0.000000 -4.277355 4.673270 2.840812 0.028225 0.571682 -1.423100 4.528742 -0.611797 -0.569141 1.366630 -0.262592 0.032027 0.000000 0.000000 0.000000 0.625207 0.257324 -0.095898 0.495329 -0.247948 0.132117 0.000000 0.000000 0.000000 0.655838 0.183577 -0.207540 0.980525 -2.939957 -15.982559 2.937416 -9.148998 -38.305651 1.903636 -63.030973 1.557234 0.000000 0.000000 0.000000 0.774719 0.349105 -0.184060 0.596393 6.396069 20.402678 -1.953436 3.134534 56.179621 0.855734 14.617855 0.200324 0.000000 0.000000 0.000000 
0.393318 91.612915 4.074875 0.000000 0.000000 0.000000 -3.497573 4.384324 2.672965 -5.411225 7.207368 3.982745 19.619324 3.925909 1.176479 -7.976535 3.155223 -5.825926 0.000000 0.000000 0.000000 -3.879611 5.855190 2.268838 -5.331547 -12.447837 -11.942595 18.654524 -5.901542 -1.174614 -10.931264 -2.580057 13.639134 0.000000 0.000000 0.000000 -4.250944 4.765104 2.849738 0.007436 0.582508 -1.438638 4.484534 -0.591393 -0.566502 1.345716 -0.251998 0.027379 0.000000 0.000000 0.000000 0.596534 0.258096 -0.103565 0.482082 -0.242232 0.127035 0.000000 0.000000 0.000000 0.662184 0.191481 -0.213752 0.952099 -2.969987 -15.987712 2.983009 -9.056050 -38.312498 1.876149 -63.027401 1.520766 0.000000 0.000000 0.000000 0.793013 0.351578 -0.194514 0.612665 6.304188 20.137483 -2.075049 3.125710 56.150531 0.878905 14.383562 0.224166 0.000000 0.000000 0.000000 
0.430125 91.611397 4.090405 0.000000 0.000000 0.000000 -3.460003 4.528070 2.697490 -5.466138 7.254329 3.995233 19.637462 3.900555 1.124599 -7.980945 3.163789 -5.750293 0.000000 0.000000 0.000000 -3.836293 6.010690 2.288388 -5.171896 -12.483563 -11.907963 18.504354 -6.020083 -1.178438 -10.985760 -2.655960 13.571920 0.000000 0.000000 0.000000 -4.232798 4.919645 2.870898 0.000027 0.589968 -1.439570 4.400359 -0.572619 -0.563237 1.318132 -0.257054 0.031363 0.000000 0.000000 0.000000 0.568085 0.242399 -0.108096 0.478690 -0.224177 0.117378 0.000000 0.000000 0.000000 0.661467 0.183322 -0.215705 0.934245 -2.995113 -15.971349 3.016229 -8.981567 -38.321599 1.858026 -63.023487 1.495838 0.000000 0.000000 0.000000 0.803832 0.341984 -0.200502 0.727436 6.220684 19.624566 -2.334130 3.237094 56.442969 0.897258 13.942342 0.217124 0.000000 0.000000 0.000000 
0.483642 91.605980 4.090927 0.000000 0.000000 0.000000 -3.421943 4.730088 2.734138 -5.522499 7.316243 3.987728 19.623692 3.836796 1.059362 -8.013105 3.162524 -5.653827 0.000000 0.000000 0.000000 -3.801182 6.222345 2.322512 -4.994677 -12.544893 -11.874379 18.399549 -6.206526 -1.179724 -11.102560 -2.770129 13.476065 0.000000 0.000000 0.000000 -4.218754 5.127304 2.904961 -0.011893 0.599642 -1.428976 4.289352 -0.551699 -0.553906 1.290080 -0.273415 0.044694 0.000000 0.000000 0.000000 0.539376 0.214696 -0.104814 0.482123 -0.192247 0.105158 0.000000 0.000000 0.000000 0.654629 0.164534 -0.209617 0.927308 -2.992167 -15.929770 3.058486 -8.917527 -38.337022 1.850831 -63.032961 1.484003 0.000000 0.000000 0.000000 0.797455 0.320471 -0.201502 0.919773 6.153222 18.933781 -2.548265 3.453594 56.934503 0.897178 13.659940 0.189668 0.000000 0.000000 0.000000 
0.548895 91.595184 4.089439 0.000000 0.000000 0.000000 -3.385816 4.971807 2.781286 -5.572637 7.380630 3.953161 19.579268 3.730874 0.988655 -8.057346 3.145732 -5.550079 0.000000 0.000000 0.000000 -3.775140 6.473275 2.372181 -4.823322 -12.621993 -11.855376 18.355365 -6.427016 -1.173719 -11.229766 -2.878002 13.396763 0.000000 0.000000 0.000000 -4.203132 5.376380 2.951447 -0.025999 0.610295 -1.414419 4.171659 -0.523198 -0.534573 1.261030 -0.291831 0.066511 0.000000 0.000000 0.000000 0.511856 0.186816 -0.094809 0.484386 -0.148903 0.092568 0.000000 0.000000 0.000000 0.643334 0.143722 -0.194730 0.928692 -2.948294 -15.863724 3.118435 -8.816325 -38.368106 1.852709 -63.067269 1.483186 0.000000 0.000000 0.000000 0.781846 0.294518 -0.198658 1.161805 6.094384 18.100097 -2.503855 3.690011 57.415615 0.879152 13.974523 0.161256 0.000000 0.000000 0.000000 
